<?xml version="1.0" encoding="UTF-8"?>
<svg version="1.1" xmlns="http://www.w3.org/2000/svg" width="463" height="396">
<path d="M0 0 C152.79 0 305.58 0 463 0 C463 130.68 463 261.36 463 396 C310.21 396 157.42 396 0 396 C0 265.32 0 134.64 0 0 Z " fill="#780FF7" transform="translate(0,0)"/>
<path d="M0 0 C152.79 0 305.58 0 463 0 C463 130.68 463 261.36 463 396 C310.21 396 157.42 396 0 396 C0 265.32 0 134.64 0 0 Z M10.78515625 20.5078125 C4.35391823 29.48621481 0.6820382 39.10040104 0.73930359 50.16398621 C0.73547804 50.9577931 0.73165249 51.75159999 0.72771102 52.56946164 C0.71743837 55.21458911 0.72136226 57.85949717 0.7253418 60.50463867 C0.72099203 62.40736084 0.715808 64.31008125 0.70985413 66.21279907 C0.69647837 71.37213644 0.6958841 76.53140047 0.69841743 81.69075179 C0.69948854 86.00450773 0.69459994 90.31824892 0.689812 94.6320017 C0.67872079 104.81530731 0.67827663 114.99857604 0.68432617 125.18188477 C0.69036038 135.66837982 0.67806809 146.15474051 0.6567561 156.64121264 C0.63910667 165.65888515 0.63314419 174.67651502 0.63639385 183.69420415 C0.63820221 189.07350366 0.63561557 194.45270741 0.62167931 199.8319912 C0.60905191 204.8955579 0.61109137 209.9589163 0.62409019 215.02248001 C0.62644521 216.87349965 0.62376014 218.72453417 0.61546707 220.57553673 C0.548985 236.57726513 2.05940492 251.95543643 13.3359375 264.46875 C21.9866252 272.42900722 30.62424775 278.25833417 42.28125 280.09765625 C43.35439453 280.26918213 44.42753906 280.44070801 45.53320312 280.61743164 C46.34724609 280.7436792 47.16128906 280.86992676 48 281 C47.99111755 281.68158676 47.98223511 282.36317352 47.9730835 283.06541443 C47.88428987 290.18732277 47.82413281 297.30907271 47.78027344 304.43139648 C47.76247947 307.08633686 47.7329612 309.74040532 47.69824219 312.39526367 C47.64948374 316.22065084 47.62697503 320.0454515 47.609375 323.87109375 C47.58872986 325.04957382 47.56808472 326.22805389 47.54681396 327.44224548 C47.54476462 335.04260937 48.27485262 341.83193581 53.52191162 347.7028656 C57.74138593 351.58419131 62.43154767 351.5590845 67.9375 351.56640625 C76.13377924 350.05051277 81.34241924 344.04687335 86.93359375 338.32421875 C87.77036148 337.4808345 88.60712921 336.63745026 89.46925354 335.76850891 C92.13256968 333.08188303 94.78550102 330.38529375 97.4375 327.6875 C100.08761233 325.0021526 102.73991193 322.3190195 105.39503479 319.6386261 C107.04232803 317.97455961 108.6865129 316.30740813 110.32701111 314.63664246 C111.08462234 313.86927261 111.84223358 313.10190277 112.62280273 312.3112793 C113.27675522 311.64605759 113.9307077 310.98083588 114.60447693 310.29545593 C115.96079186 308.99579775 117.34088453 307.71749185 118.78723049 306.51883221 C122.58945109 303.35518245 125.67542169 300.24783346 128.57450867 296.22813416 C134.31776233 288.68703051 140.34800061 282.19765496 150.01823658 280.58091611 C159.95705055 279.38653492 170.0109151 279.73016948 179.9953177 280.00331235 C184.69291799 280.11014981 189.39041809 280.10379774 194.08903503 280.10935974 C202.97356888 280.13590389 211.8541102 280.25534636 220.73719949 280.41242307 C233.75497116 280.63887284 246.77385537 280.73435593 259.79323101 280.81760311 C261.23345071 280.82689393 261.23345071 280.82689393 262.70276576 280.83637244 C264.6187963 280.84871304 266.53482843 280.86080795 268.45086211 280.87265056 C274.01821857 280.91033798 279.58412472 280.97837658 285.15077841 281.07415402 C288.6235457 281.13138693 292.09640097 281.17266312 295.56941986 281.21125793 C297.16494338 281.23287119 298.7603909 281.2616168 300.35563469 281.29849052 C317.25017715 281.68388056 332.51006741 278.1320203 345.3125 266.3125 C358.46758229 252.06343998 360.60807341 235.57749832 360.53344727 217.13134766 C360.54052066 215.27348653 360.54927159 213.41563116 360.55955505 211.55778503 C360.58190053 206.55140521 360.57914412 201.54534373 360.57023358 196.53893328 C360.56509319 192.34199811 360.57244094 188.14512117 360.57970566 183.948192 C360.59665787 174.03832536 360.59318649 164.12861288 360.57641602 154.21875 C360.55950149 144.03371012 360.57533085 133.84909907 360.6076389 123.66410601 C360.63442628 114.88314722 360.64158612 106.10232117 360.63312382 97.32132566 C360.62822097 92.09284974 360.63026585 86.86463154 360.65091133 81.63618851 C360.66941271 76.71600834 360.66313508 71.7964396 360.63871193 66.87629128 C360.63374944 65.08338912 360.63707323 63.29043918 360.64986038 61.49757576 C360.75285095 45.80096189 358.63570137 31.3400024 348 19 C347.35417969 18.22140625 346.70835937 17.4428125 346.04296875 16.640625 C338.50794305 8.30875984 326.92812225 1.68651453 315.56529701 0.81278718 C312.63335646 0.73361874 309.70741444 0.71906015 306.7743988 0.72584534 C305.6512353 0.72060866 304.5280718 0.71537198 303.37087303 0.70997661 C299.61106347 0.69498699 295.85139012 0.69427167 292.09155273 0.69360352 C289.39405246 0.68598123 286.69656356 0.67760209 283.99906921 0.66838074 C276.67233165 0.64556988 269.34562312 0.63761408 262.01885486 0.63255429 C257.43882045 0.62929217 252.8587944 0.62276652 248.27876472 0.6155529 C235.58339809 0.59599068 222.8880392 0.57958472 210.19265652 0.57667637 C208.97496703 0.57639501 208.97496703 0.57639501 207.73267776 0.57610798 C206.08715856 0.57574174 204.44163936 0.57537804 202.79612016 0.57501686 C201.57095792 0.57474265 201.57095792 0.57474265 200.32104492 0.57446289 C199.5032661 0.57428234 198.68548728 0.57410179 197.84292728 0.57391577 C184.60284439 0.57037689 171.36292441 0.54337077 158.12289798 0.505965 C144.51047069 0.46781683 130.8981241 0.44851841 117.28564221 0.44821686 C109.65045952 0.44763369 102.01547112 0.43923291 94.38033867 0.41021919 C87.87667026 0.38561779 81.37326697 0.37848093 74.86956453 0.39346672 C71.55615853 0.40060089 68.24369787 0.39717129 64.93028259 0.37705612 C42.93086393 0.25169483 25.8029927 2.68376842 10.78515625 20.5078125 Z " fill="#FEFEFE" transform="translate(0,0)"/>
<path d="M0 0 C4.85220362 -0.12554464 9.70342022 -0.21523191 14.55688477 -0.2746582 C16.20060737 -0.29948301 17.84422349 -0.3333554 19.48754883 -0.37719727 C35.24832825 -0.78650562 48.51633709 1.50549217 61 12 C61.62132812 12.49886719 62.24265625 12.99773437 62.8828125 13.51171875 C71.80223163 21.4512017 77.44312101 33.15841381 78.1892662 45.00498581 C78.27350301 48.54031282 78.2930913 52.07059736 78.29052734 55.60693359 C78.29652301 56.95985785 78.30333092 58.31277872 78.31088257 59.66569519 C78.32844179 63.31662941 78.33323359 66.96746969 78.33451414 70.61844206 C78.33594176 72.90526126 78.3402228 75.19205704 78.34550858 77.47887039 C78.36397379 85.47323354 78.37218339 93.46753029 78.37060547 101.46191406 C78.36940423 108.88795512 78.39051192 116.31370548 78.4220928 123.73967302 C78.44832505 130.13828871 78.4589699 136.53680982 78.45769465 142.93547881 C78.45718716 146.74703133 78.46275173 150.55832501 78.48405075 154.36982346 C78.50355172 157.95692873 78.50347789 161.54353128 78.48901749 165.13065529 C78.48596207 167.05720612 78.50252142 168.98375765 78.51989746 170.91023254 C78.41881261 185.02867966 72.99857241 197.40439732 63.45703125 207.78515625 C58.19942066 212.52452859 51.71505725 216.76164758 45 219 C45.00169189 220.83776001 45.00169189 220.83776001 45.00341797 222.71264648 C44.9997253 227.29220997 44.95673684 231.87073251 44.90234375 236.44995117 C44.88426269 238.42546855 44.87660082 240.40111159 44.87988281 242.37670898 C44.89988401 262.19289521 44.89988401 262.19289521 39.59912109 268.58789062 C34.74311086 272.87600714 29.72484261 273.34542522 23.52734375 273.49609375 C15.99993976 272.01853532 10.72685251 264.92171189 5.625 259.6875 C3.99470553 258.02227065 2.36192133 256.35947487 0.7265625 254.69921875 C0.01064941 253.96533936 -0.70526367 253.23145996 -1.44287109 252.4753418 C-3.44980522 250.53259737 -5.46908118 248.77378569 -7.60952759 246.98970032 C-10.81178483 244.21309952 -13.5152105 241.28792393 -16.20263672 238.01281738 C-23.44542556 229.43886607 -29.87008582 222.18528759 -41.47053528 220.85504913 C-47.37629075 220.58375901 -53.22073654 220.73589725 -59.125 220.96875 C-61.69076214 220.99384974 -64.25663329 221.00941369 -66.82250977 221.01599121 C-72.84251804 221.05164293 -78.85438662 221.1726488 -84.87164211 221.34040403 C-95.0002281 221.61807752 -105.13160053 221.70796328 -115.26318359 221.81262207 C-120.2822314 221.86486179 -125.29739104 221.9605519 -130.31494141 222.09265137 C-132.61490558 222.13810544 -134.91487288 222.1834018 -137.21484375 222.22851562 C-138.23431595 222.26496689 -139.25378815 222.30141815 -140.30415344 222.338974 C-154.07171624 222.55128957 -167.38057034 216.59290434 -177.375 207.1875 C-183.78827887 200.30755842 -190.29521596 190.66012229 -190 181 C-189.25769481 180.99761165 -188.51538961 180.99522329 -187.75059032 180.99276257 C-169.65424212 180.93352027 -151.55802923 180.85791139 -133.46182537 180.76428509 C-124.71048376 180.71939834 -115.95918219 180.6799674 -107.20776367 180.65356445 C-99.57636117 180.63052654 -91.94508616 180.59706422 -84.3137849 180.55129844 C-80.27638275 180.52744403 -76.23910627 180.50866445 -72.20163536 180.50238609 C-68.39387514 180.49629977 -64.58643611 180.47617356 -60.77879524 180.44572449 C-59.38857639 180.43700067 -57.99831546 180.43320982 -56.60807037 180.43499184 C-41.29021502 180.44841536 -27.04460304 177.01223073 -15.5625 166.1875 C-6.40642185 156.14472796 -0.93050621 142.89916805 -0.84178162 129.27360535 C-0.8319928 128.13082123 -0.82220398 126.98803711 -0.81211853 125.81062317 C-0.80636307 124.56624985 -0.8006076 123.32187653 -0.79467773 122.03979492 C-0.78477814 120.72233276 -0.77487854 119.40487061 -0.76467896 118.04748535 C-0.73769975 114.44254374 -0.7166525 110.83758914 -0.69667697 107.23260283 C-0.67477421 103.46228033 -0.64740655 99.69199756 -0.62062073 95.92170715 C-0.57075177 88.78557803 -0.52579149 81.64942678 -0.48259836 74.51325446 C-0.43317638 66.38751115 -0.37827668 58.26180773 -0.32291877 50.13610303 C-0.20918774 33.42410549 -0.10232944 16.71207133 0 0 Z " fill="#C800A8" transform="translate(384,122)"/>
<path d="M0 0 C11.22 0 22.44 0 34 0 C36.53258086 6.33145216 38.91653785 12.53440032 41 19 C42.82358762 24.57134307 44.75033335 30.03503323 47.00390625 35.44921875 C48.75300002 39.92827064 50.1840017 44.51784313 51.65625 49.09375 C52.62694299 52.01225991 53.72681975 54.85697018 54.8828125 57.70703125 C57.21864665 63.47464413 59.30065394 69.32164823 61.375 75.1875 C62.24963482 77.64856815 63.12464569 80.10950038 64 82.5703125 C64.23294769 83.22578568 64.46589539 83.88125885 64.7059021 84.55659485 C67.60197373 92.70196998 70.52391474 100.83806481 73.44561768 108.97427368 C74.35649579 111.51096783 75.26690145 114.04783116 76.17724609 116.5847168 C76.46499908 117.38619644 76.75275208 118.18767609 77.04922485 119.01344299 C77.60762734 120.56886091 78.16572141 122.1243896 78.72348022 123.68003845 C80.56680071 128.81530588 82.4437018 133.93728889 84.35791016 139.04663086 C85 141 85 141 85 143 C74.77 143 64.54 143 54 143 C52.68 139.101875 51.36 135.20375 50 131.1875 C49.58234375 129.96184326 49.1646875 128.73618652 48.734375 127.47338867 C48.40953125 126.5063501 48.0846875 125.53931152 47.75 124.54296875 C47.24726563 123.0583313 47.24726563 123.0583313 46.734375 121.54370117 C46 119 46 119 46 116 C26.86 116 7.72 116 -12 116 C-12.33 117.98 -12.66 119.96 -13 122 C-13.5038176 123.73839033 -14.04704474 125.46584086 -14.62890625 127.1796875 C-14.91064697 128.01741699 -15.1923877 128.85514648 -15.48266602 129.71826172 C-15.83901123 130.75998535 -16.19535645 131.80170898 -16.5625 132.875 C-17.696875 136.21625 -18.83125 139.5575 -20 143 C-30.23 143 -40.46 143 -51 143 C-49.02523599 136.41745331 -46.98379933 130.03185392 -44.5625 123.625 C-42.2245769 117.36621059 -39.96840716 111.09990716 -37.921875 104.73828125 C-36.70496871 101.12365705 -35.3488359 97.56707316 -34 94 C-30.46398969 84.53987624 -26.96272242 75.08137659 -23.82421875 65.48046875 C-22.8994956 62.69753416 -21.88204896 59.96166853 -20.8359375 57.22265625 C-18.26551199 50.38820712 -15.87346961 43.48517716 -13.44921875 36.59765625 C-13.18729736 35.85378662 -12.92537598 35.10991699 -12.65551758 34.34350586 C-12.15062121 32.90841256 -11.64649979 31.47304628 -11.14331055 30.03735352 C-9.48967051 25.33440804 -7.76253789 20.66310121 -6 16 C-5.46444915 14.5730647 -4.92929726 13.14597961 -4.39453125 11.71875 C-2.9296875 7.8125 -1.46484375 3.90625 0 0 Z " fill="#FDFCFE" transform="translate(132,93)"/>
<path d="M0 0 C9.57 0 19.14 0 29 0 C29 47.19 29 94.38 29 143 C19.43 143 9.86 143 0 143 C0 95.81 0 48.62 0 0 Z " fill="#FDFCFE" transform="translate(236,93)"/>
<path d="M0 0 C0.66 0 1.32 0 2 0 C3.74352393 4.93908001 5.48493831 9.87889753 7.22460938 14.81933594 C7.81358356 16.49107719 8.40308059 18.16263435 8.99316406 19.83398438 C12.18836597 28.88523893 15.35418482 37.94634718 18.4296875 47.0390625 C18.68928253 47.7964975 18.94887756 48.5539325 19.21633911 49.33432007 C20.22522865 52.34198482 21 54.80487839 21 58 C7.8 58 -5.4 58 -19 58 C-16.75005612 47.87525254 -16.75005612 47.87525254 -15.42773438 44.1262207 C-15.13402954 43.2853743 -14.84032471 42.44452789 -14.53771973 41.57820129 C-14.22620972 40.70290268 -13.91469971 39.82760406 -13.59375 38.92578125 C-13.10569885 37.53458321 -13.10569885 37.53458321 -12.60778809 36.11528015 C-11.57667458 33.17929913 -10.5385415 30.24586071 -9.5 27.3125 C-8.46310029 24.36786872 -7.42762618 21.42273871 -6.39221191 18.47758484 C-5.75011745 16.65294786 -5.10686562 14.82871762 -4.46228027 13.00495911 C-2.93523096 8.68234244 -1.43129062 4.35558073 0 0 Z " fill="#7E14F7" transform="translate(148,128)"/>
<path d="M0 0 C102.96 0 205.92 0 312 0 C312 0.33 312 0.66 312 1 C311.15100642 1.00032605 311.15100642 1.00032605 310.28486145 1.00065869 C276.69840299 1.01419068 243.11208271 1.05375065 209.52570163 1.12685562 C205.4880007 1.1356218 201.45029933 1.14417171 197.41259766 1.15258789 C196.20690719 1.15510648 196.20690719 1.15510648 194.97685935 1.15767596 C181.98212602 1.18430588 168.9874368 1.19343816 155.99267898 1.19604143 C142.64710347 1.19910682 129.30165497 1.22112107 115.95613682 1.26052457 C107.72903685 1.28422444 99.50219085 1.29335219 91.2750615 1.28351311 C85.62433593 1.27817479 79.97383678 1.29133328 74.32317565 1.3186629 C71.06867074 1.33386885 67.81477153 1.33852478 64.56023788 1.32659721 C44.74488145 1.2611915 30.14258235 2.84691709 14.9765625 16.87109375 C6.43361788 25.84305087 1.68838851 37.74159499 1.7215271 50.05491638 C1.7157347 50.8367723 1.7099423 51.61862823 1.70397437 52.42417675 C1.68705107 55.02818837 1.68410452 57.63202194 1.68115234 60.23608398 C1.67184887 62.10901826 1.66167957 63.9819484 1.65071106 65.85487366 C1.62344432 70.92866874 1.60827148 76.0024361 1.59528303 81.07628512 C1.57963797 86.38276261 1.55285211 91.68918362 1.5272522 96.99562073 C1.48048881 107.03933467 1.44373286 117.08305926 1.41057932 127.12682635 C1.37234073 138.56332356 1.3229351 149.99976402 1.27259517 161.43621337 C1.16931158 184.9574335 1.08003953 208.4786901 1 232 C0.67 232 0.34 232 0 232 C0 155.44 0 78.88 0 0 Z " fill="#F2E3FE" transform="translate(0,0)"/>
<path d="M0 0 C4.61546928 2.21398292 8.18069943 5.13095404 10 10 C10.68626143 16.39916507 10.90210873 22.61778106 7 28 C1.65527715 32.94386864 -2.89687325 33.47011413 -9.98046875 33.41015625 C-14.69873232 32.7692537 -17.11836104 30.66524253 -20 27 C-23.29113654 22.22254373 -23.88542372 17.6470357 -23 12 C-19.05197412 1.17476774 -10.54501886 -1.41039627 0 0 Z " fill="#F9F3FE" transform="translate(119,37)"/>
<path d="M0 0 C4.0265384 2.63895751 6.3655356 5.45207555 7.91015625 10.0859375 C7.91015625 12.7259375 7.91015625 15.3659375 7.91015625 18.0859375 C-0.33984375 18.0859375 -8.58984375 18.0859375 -17.08984375 18.0859375 C-14.92317708 23.91927083 -14.92317708 23.91927083 -12.08984375 25.0859375 C-8.06825913 25.34619146 -8.06825913 25.34619146 -4.08984375 25.0859375 C-3.59484375 24.5909375 -3.09984375 24.0959375 -2.58984375 23.5859375 C-1.08984375 22.0859375 -1.08984375 22.0859375 0.859375 21.88671875 C2.87736732 21.89728415 4.89457235 21.98681042 6.91015625 22.0859375 C5.55860343 26.50920128 3.71125187 28.49006732 -0.08984375 31.0859375 C-5.86778157 33.01191677 -11.94212374 33.02312441 -17.52734375 30.5859375 C-22.15120702 26.07485138 -24.28332753 21.56865492 -24.65234375 15.0859375 C-24.40705763 9.77958106 -22.73861697 5.94771018 -19.08984375 2.0859375 C-13.48415273 -1.43135883 -6.23580861 -2.72743778 0 0 Z " fill="#F8F4FE" transform="translate(305.08984375,37.9140625)"/>
<path d="M0 0 C5.3465699 5.92457746 5 7.10843416 5 16 C-3.25 16 -11.5 16 -20 16 C-17.7185085 19.67913412 -17.7185085 19.67913412 -15 23 C-12.96729438 23.23820921 -12.96729438 23.23820921 -10.625 23.25 C-9.83351562 23.27578125 -9.04203125 23.3015625 -8.2265625 23.328125 C-5.48294314 22.92380215 -4.87628865 21.94747576 -3 20 C0.6875 19.8125 0.6875 19.8125 4 20 C2.64717831 24.42741644 0.76701112 26.36309221 -3 29 C-7.19104934 31.09552467 -12.43586161 30.41220622 -17 30 C-21.86140577 27.91654038 -24.20603356 25.00763031 -26.3046875 20.28125 C-28.00887163 14.68999419 -27.94300335 9.81864932 -25.25 4.625 C-18.43299235 -3.32817559 -9.53110079 -6.4279517 0 0 Z " fill="#F9F4FE" transform="translate(225,40)"/>
<path d="M0 0 C3.61508525 2.98637477 5.59292256 5.52293541 7 10 C-0.39562624 10.49304175 -0.39562624 10.49304175 -3.375 8.0625 C-3.91125 7.381875 -4.4475 6.70125 -5 6 C-9.38714119 3.80642941 -15.34368334 4.62042743 -20 5.6875 C-22.68927552 7.45233706 -23.02040162 8.9589859 -24 12 C-24.64945377 17.61097851 -24.71523516 22.46356891 -22.3125 27.625 C-18.66925594 31.36671012 -16.21375362 31.86513849 -11.0625 32.4375 C-7.44362459 32.37662172 -7.00898529 32.00748774 -4 29.5 C0.01093007 26.15755827 1.92956209 26.56289328 7 27 C5.43660137 32.4718952 1.92439218 35.17939142 -2.80078125 38.12109375 C-7.99202598 40.1957475 -14.87964367 39.92722332 -20.1953125 38.34765625 C-25.53643443 35.55733919 -29.46002855 30.72994938 -32.375 25.5625 C-34.21586966 18.0149344 -32.80191704 11.68690115 -29 5 C-21.57877159 -3.92751735 -10.0607359 -5.30513595 0 0 Z " fill="#F9F1FE" transform="translate(86,31)"/>
<path d="M0 0 C2.64 0 5.28 0 8 0 C8 0.66 8 1.32 8 2 C8.85464844 1.51466797 8.85464844 1.51466797 9.7265625 1.01953125 C14.52762676 -1.13352334 19.52125746 -0.5202983 24.375 1.1875 C27.3652583 3.25220216 28.4075546 4.75568317 30 8 C30.34057617 10.86254883 30.34057617 10.86254883 30.29296875 13.95703125 C30.28330078 15.06884766 30.27363281 16.18066406 30.26367188 17.32617188 C30.23853516 18.47666016 30.21339844 19.62714844 30.1875 20.8125 C30.16719727 22.56723633 30.16719727 22.56723633 30.14648438 24.35742188 C30.11120278 27.238752 30.0619028 30.11913904 30 33 C27.69 33 25.38 33 23 33 C22.98541748 32.31897217 22.97083496 31.63794434 22.95581055 30.9362793 C22.88137304 27.85277785 22.78469917 24.77036433 22.6875 21.6875 C22.66494141 20.61564453 22.64238281 19.54378906 22.61914062 18.43945312 C22.5659668 16.89741211 22.5659668 16.89741211 22.51171875 15.32421875 C22.48553467 14.37635498 22.45935059 13.42849121 22.43237305 12.4519043 C21.92833186 9.59358375 21.35426928 8.66185718 19 7 C14.40430361 6.41770497 14.40430361 6.41770497 10.31323242 8.19067383 C8.54299724 10.62964258 8.5710921 12.32646594 8.48828125 15.32421875 C8.45283203 16.35224609 8.41738281 17.38027344 8.38085938 18.43945312 C8.34702148 20.04723633 8.34702148 20.04723633 8.3125 21.6875 C8.27833984 22.77095703 8.24417969 23.85441406 8.20898438 24.97070312 C8.1264544 27.6470322 8.05732063 30.32303159 8 33 C5.36 33 2.72 33 0 33 C0 22.11 0 11.22 0 0 Z " fill="#F5EBFE" transform="translate(133,37)"/>
<path d="M0 0 C3.189732 1.30193143 4.44685868 2.15711799 6.3125 5 C7 7 7 7 7 10 C3.625 10.1875 3.625 10.1875 0 10 C-0.66 9.01 -1.32 8.02 -2 7 C-5.58357241 6.74984127 -5.58357241 6.74984127 -9 7 C-9.33 8.32 -9.66 9.64 -10 11 C-8.94039063 11.40992188 -7.88078125 11.81984375 -6.7890625 12.2421875 C-5.40093404 12.78618379 -4.01291907 13.33046971 -2.625 13.875 C-1.92632812 14.14441406 -1.22765625 14.41382813 -0.5078125 14.69140625 C4.7734375 16.7734375 4.7734375 16.7734375 7 19 C7.62975836 22.08218276 7.57508919 24.91155803 7 28 C4.2373913 31.7602174 2.71824893 32.69104791 -1.82421875 33.5078125 C-7.1081722 33.81278346 -11.02375966 33.63271376 -15.25 30.25 C-16.890625 28.703125 -16.890625 28.703125 -18 27 C-18 25.68 -18 24.36 -18 23 C-14.625 22.8125 -14.625 22.8125 -11 23 C-10.34 23.99 -9.68 24.98 -9 26 C-7.02252878 26.36297936 -7.02252878 26.36297936 -4.875 26.1875 C-3.59625 26.125625 -2.3175 26.06375 -1 26 C-0.34 24.68 0.32 23.36 1 22 C0.27554687 21.82984375 -0.44890625 21.6596875 -1.1953125 21.484375 C-8.26712692 19.71170685 -13.79279277 18.31081085 -18 12 C-18.4375 9.125 -18.4375 9.125 -18 6 C-12.53333101 -0.47368696 -8.13025659 -0.65793984 0 0 Z " fill="#F9F5FE" transform="translate(271,37)"/>
<path d="M0 0 C2.64 0 5.28 0 8 0 C8.23710693 0.72179443 8.47421387 1.44358887 8.71850586 2.18725586 C9.78840239 5.43836757 10.86288718 8.68794431 11.9375 11.9375 C12.31068359 13.07380859 12.68386719 14.21011719 13.06835938 15.38085938 C13.42607422 16.46044922 13.78378906 17.54003906 14.15234375 18.65234375 C14.48226318 19.65257568 14.81218262 20.65280762 15.15209961 21.68334961 C15.79028011 23.9306108 15.79028011 23.9306108 17 25 C17.36351562 23.78376953 17.36351562 23.78376953 17.734375 22.54296875 C23.93155259 2.06844741 23.93155259 2.06844741 26 0 C28.33297433 -0.04092937 30.66705225 -0.04241723 33 0 C30.88804509 7.56862529 28.22216627 14.82995156 25.3125 22.125 C24.89677734 23.176875 24.48105469 24.22875 24.05273438 25.3125 C23.03880049 27.87647075 22.02117166 30.43890532 21 33 C18.03 33 15.06 33 12 33 C10.61118605 29.26512348 9.22370095 25.52975622 7.83740234 21.79394531 C7.3664061 20.52525769 6.89505793 19.25670066 6.42333984 17.98828125 C5.74221971 16.15660089 5.06250371 14.32439858 4.3828125 12.4921875 C3.97434082 11.39245605 3.56586914 10.29272461 3.14501953 9.15966797 C2.04421447 6.1220093 1.00710449 3.06984862 0 0 Z " fill="#F9F3FE" transform="translate(165,37)"/>
<path d="M0 0 C2.76400806 0.76901837 4.46119814 2.29520865 6.08984375 4.625 C7.69326367 8.24562562 7.72357899 11.69364906 6.9375 15.5390625 C5.14356332 18.40936119 3.95486724 20.03037888 0.9375 21.5390625 C-3.23768846 22.01172535 -5.38817556 21.95513503 -9 19.7265625 C-12.01354347 15.06926805 -12.04949035 10.93514906 -11.0625 5.5390625 C-8.19838265 0.97437547 -5.241348 -0.37721823 0 0 Z " fill="#8F09FB" transform="translate(115.0625,42.4609375)"/>
<path d="M0 0 C2.31 0 4.62 0 7 0 C7.33 0.99 7.66 1.98 8 3 C8.556875 2.505 9.11375 2.01 9.6875 1.5 C12.38162983 -0.24754367 13.85375007 -0.26218749 17 0 C17 2.31 17 4.62 17 7 C15.88625 7.28875 14.7725 7.5775 13.625 7.875 C9.99708908 8.69241329 9.99708908 8.69241329 8 11 C7.62948007 13.3245339 7.62948007 13.3245339 7.5859375 16.0078125 C7.54726562 16.99394531 7.50859375 17.98007812 7.46875 18.99609375 C7.4378125 20.02863281 7.406875 21.06117187 7.375 22.125 C7.33632812 23.16527344 7.29765625 24.20554687 7.2578125 25.27734375 C7.16335234 27.85138311 7.07778786 30.42541155 7 33 C4.69 33 2.38 33 0 33 C0 22.11 0 11.22 0 0 Z " fill="#F8F2FE" transform="translate(234,37)"/>
<path d="M0 0 C2.1640625 0.4296875 2.1640625 0.4296875 4.7265625 2.8046875 C6.1640625 5.4296875 6.1640625 5.4296875 6.1640625 7.4296875 C0.5540625 7.4296875 -5.0559375 7.4296875 -10.8359375 7.4296875 C-9.14764526 0.67651856 -6.58487889 -0.19304205 0 0 Z " fill="#8114F8" transform="translate(216.8359375,42.5703125)"/>
<path d="M0 0 C2.5 1.25 2.5 1.25 4 3 C4 4.32 4 5.64 4 7 C-1.28 7 -6.56 7 -12 7 C-11.67 5.35 -11.34 3.7 -11 2 C-7.30211684 -0.46525544 -4.29029836 -0.56110542 0 0 Z " fill="#7218F5" transform="translate(301,43)"/>
</svg>
