<?xml version="1.0" encoding="UTF-8"?>
<svg xmlns="http://www.w3.org/2000/svg" xmlns:xlink="http://www.w3.org/1999/xlink" version="1.1" viewBox="0 0 201.3 153.4">
  <defs>
    <style>
      .cls-1 {
        fill: url(#linear-gradient-2);
      }

      .cls-2 {
        fill: url(#linear-gradient);
      }

      .cls-3 {
        fill: #fff;
      }
    </style>
    <linearGradient id="linear-gradient" x1="101.5" y1="66" x2="177.2" y2="113.8" gradientUnits="userSpaceOnUse">
      <stop offset="0" stop-color="#9d00ff"/>
      <stop offset="1" stop-color="#d90086"/>
    </linearGradient>
    <linearGradient id="linear-gradient-2" x1="33.6" y1="32.7" x2="134.6" y2="96.7" gradientUnits="userSpaceOnUse">
      <stop offset="0" stop-color="#9d00ff"/>
      <stop offset="1" stop-color="#531def"/>
    </linearGradient>
  </defs>
  <!-- Generator: Adobe Illustrator 28.6.0, SVG Export Plug-In . SVG Version: 1.2.0 Build 709)  -->
  <g>
    <g id="Layer_1">
      <g>
        <g>
          <path class="cls-2" d="M164.7,51.3h-9.1v43.4c0,9.4-7.6,17-17,17h-11c-.7,0-1.4,0-2.1,0h-33.2c1.6,7.7,8.5,13.5,16.7,13.5h36l15.8,15.5c1.1,1.1,2.5,1.6,4,1.6s1.5-.1,2.2-.5c2.1-.9,3.5-2.9,3.5-5.2v-12.4c6.7-2.3,11.5-8.6,11.5-16.1v-39.9c0-9.4-7.7-17-17-17Z"/>
          <path class="cls-1" d="M45,11c-9.4,0-17,7.6-17,17v59.2c0,9,7,16.4,15.9,17v17.9c0,2.3,1.4,4.4,3.5,5.3.7.3,1.5.4,2.2.4,1.4,0,2.9-.6,4-1.6l22.3-22h54.6c9.4,0,17-7.6,17-17V28c0-9.4-7.6-17-17-17H45s0,0,0,0Z"/>
        </g>
        <g>
          <path class="cls-3" d="M86.8,80.3h-18.9l-3.1,9h-10l17.1-47.5h11.1l17.1,47.5h-10.1l-3.1-9ZM84.2,72.7l-6.9-19.8-6.9,19.8h13.7Z"/>
          <path class="cls-3" d="M115.9,41.9v47.4h-9.5v-47.4h9.5Z"/>
        </g>
        <g>
          <path class="cls-3" d="M46.4,23.6c.6-1.1,1.5-1.9,2.5-2.5,1.1-.6,2.2-.9,3.5-.9s2.7.4,3.8,1.1c1.1.7,1.9,1.7,2.4,3h-2.7c-.4-.7-.8-1.2-1.5-1.6-.6-.4-1.3-.5-2.2-.5s-1.7.2-2.4.6c-.7.4-1.3,1-1.6,1.7-.4.8-.6,1.6-.6,2.6s.2,1.9.6,2.6c.4.8.9,1.3,1.6,1.7.7.4,1.5.6,2.4.6s1.5-.2,2.2-.5c.6-.4,1.1-.9,1.5-1.6h2.7c-.5,1.3-1.3,2.3-2.4,3-1.1.7-2.4,1.1-3.8,1.1s-2.4-.3-3.5-.9c-1.1-.6-1.9-1.4-2.5-2.5-.6-1.1-.9-2.2-.9-3.6s.3-2.5.9-3.6Z"/>
          <path class="cls-3" d="M62.5,33.4c-.8-.5-1.5-1.1-1.9-1.9-.5-.8-.7-1.8-.7-2.9s.2-2.1.7-2.9c.5-.8,1.1-1.5,2-1.9.8-.5,1.8-.7,2.8-.7s2,.2,2.8.7c.8.5,1.5,1.1,2,1.9.5.8.7,1.8.7,2.9s-.2,2.1-.7,2.9c-.5.8-1.2,1.5-2,2-.9.5-1.8.7-2.8.7s-1.9-.2-2.7-.7ZM66.8,31.8c.5-.3.9-.7,1.2-1.2.3-.5.5-1.2.5-2s-.1-1.4-.4-2c-.3-.5-.7-.9-1.2-1.2-.5-.3-1-.4-1.6-.4s-1.1.1-1.6.4c-.5.3-.9.7-1.2,1.2-.3.5-.4,1.2-.4,2,0,1.2.3,2,.9,2.7.6.6,1.3.9,2.2.9s1.1-.1,1.6-.4Z"/>
          <path class="cls-3" d="M79.9,23.6c.7.4,1.2.9,1.6,1.6.4.7.6,1.5.6,2.5v6.3h-2.2v-6c0-1-.2-1.7-.7-2.2-.5-.5-1.1-.8-2-.8s-1.5.3-2,.8c-.5.5-.7,1.3-.7,2.2v6h-2.2v-10.7h2.2v1.2c.4-.4.8-.8,1.4-1,.6-.2,1.2-.4,1.8-.4s1.6.2,2.3.5Z"/>
          <path class="cls-3" d="M88.2,32l3-8.8h2.4l-4.1,10.7h-2.7l-4.1-10.7h2.4l3,8.8Z"/>
          <path class="cls-3" d="M104.3,29.4h-8.2c0,.9.4,1.5,1,2.1.6.5,1.3.8,2.1.8,1.2,0,2-.5,2.5-1.5h2.4c-.3,1-.9,1.8-1.8,2.4-.9.6-1.9.9-3.2.9s-1.9-.2-2.8-.7c-.8-.5-1.4-1.1-1.9-1.9-.5-.8-.7-1.8-.7-2.9s.2-2.1.7-2.9c.4-.8,1.1-1.5,1.9-1.9.8-.5,1.7-.7,2.8-.7s1.9.2,2.7.7c.8.4,1.4,1.1,1.9,1.9.4.8.7,1.7.7,2.8s0,.8,0,1.1ZM102,27.6c0-.8-.3-1.5-.9-2-.6-.5-1.3-.7-2.1-.7s-1.4.2-2,.7c-.5.5-.9,1.1-1,2h5.9Z"/>
          <path class="cls-3" d="M109.3,23.5c.5-.3,1.2-.5,1.9-.5v2.3h-.6c-.9,0-1.5.2-2,.7-.4.4-.7,1.2-.7,2.3v5.7h-2.2v-10.7h2.2v1.6c.3-.5.8-1,1.3-1.3Z"/>
          <path class="cls-3" d="M114.1,33.7c-.7-.3-1.2-.7-1.6-1.2-.4-.5-.6-1.1-.6-1.8h2.3c0,.5.3.8.7,1.1.4.3.9.5,1.5.5s1.1-.1,1.5-.4c.3-.2.5-.5.5-.9s-.2-.7-.6-.9c-.4-.2-1-.4-1.8-.6-.8-.2-1.5-.4-2-.6-.5-.2-.9-.5-1.3-1-.4-.4-.6-1-.6-1.7s.2-1.1.5-1.6c.3-.5.8-.8,1.5-1.1.6-.3,1.4-.4,2.2-.4,1.2,0,2.2.3,3,.9.7.6,1.1,1.5,1.2,2.5h-2.2c0-.5-.2-.9-.6-1.2-.4-.3-.8-.4-1.4-.4s-1,.1-1.3.3c-.3.2-.5.5-.5.9s.1.5.3.7c.2.2.5.3.8.5.3.1.7.3,1.3.4.8.2,1.4.4,1.9.6.5.2.9.5,1.3.9.4.4.6,1,.6,1.7,0,.6-.2,1.2-.5,1.6-.3.5-.8.9-1.4,1.1-.6.3-1.3.4-2.2.4s-1.6-.2-2.3-.5Z"/>
          <path class="cls-3" d="M131.9,29.4h-8.2c0,.9.4,1.5,1,2.1.6.5,1.3.8,2.1.8,1.2,0,2-.5,2.5-1.5h2.4c-.3,1-.9,1.8-1.8,2.4s-1.9.9-3.2.9-1.9-.2-2.8-.7c-.8-.5-1.4-1.1-1.9-1.9-.5-.8-.7-1.8-.7-2.9s.2-2.1.7-2.9c.4-.8,1.1-1.5,1.9-1.9.8-.5,1.7-.7,2.8-.7s1.9.2,2.7.7c.8.4,1.4,1.1,1.9,1.9.4.8.7,1.7.7,2.8s0,.8,0,1.1ZM129.6,27.6c0-.8-.3-1.5-.9-2-.6-.5-1.3-.7-2.1-.7s-1.4.2-2,.7c-.5.5-.9,1.1-1,2h5.9Z"/>
        </g>
      </g>
    </g>
  </g>
</svg>