<svg width="40" height="40" viewBox="0 0 40 40" fill="none" xmlns="http://www.w3.org/2000/svg">
<circle cx="20" cy="20" r="20" fill="#323642"/>
<g clip-path="url(#clip0_82_13)">
<path fill-rule="evenodd" clip-rule="evenodd" d="M17.9884 22.5861V16.9743C19.9806 17.9117 21.5236 18.8173 23.3485 19.7936C21.8433 20.6283 19.9806 21.5649 17.9884 22.5861ZM29.091 14.1833C28.7474 13.7305 28.1617 13.3781 27.5381 13.2614C25.7053 12.9134 14.271 12.9124 12.4392 13.2614C11.9391 13.3551 11.4938 13.5817 11.1113 13.9338C9.49964 15.4297 10.0047 23.4517 10.3931 24.7512C10.5565 25.3136 10.7677 25.7193 11.0337 25.9855C11.3763 26.3376 11.8455 26.58 12.3844 26.6887C13.8935 27.0008 21.668 27.1753 27.5062 26.7355C28.0441 26.6418 28.5202 26.3916 28.8958 26.0246C30.3859 24.5347 30.2843 16.0621 29.091 14.1833Z" fill="white"/>
</g>
<defs>
<clipPath id="clip0_82_13">
<rect width="20" height="20" fill="white" transform="translate(10 10)"/>
</clipPath>
</defs>
</svg>
