<svg width="40" height="40" viewBox="0 0 40 40" fill="none" xmlns="http://www.w3.org/2000/svg">
<circle cx="20" cy="20" r="20" fill="#323642"/>
<path d="M17.168 13.125C14.9487 13.125 13.125 14.9463 13.125 17.168V22.832C13.125 25.0513 14.9463 26.875 17.168 26.875H22.832C25.0513 26.875 26.875 25.0537 26.875 22.832V17.168C26.875 14.9487 25.0537 13.125 22.832 13.125H17.168ZM17.168 14.375H22.832C24.3774 14.375 25.625 15.6226 25.625 17.168V22.832C25.625 24.3774 24.3774 25.625 22.832 25.625H17.168C15.6226 25.625 14.375 24.3774 14.375 22.832V17.168C14.375 15.6226 15.6226 14.375 17.168 14.375ZM23.6914 15.7422C23.3765 15.7422 23.125 15.9937 23.125 16.3086C23.125 16.6235 23.3765 16.875 23.6914 16.875C24.0063 16.875 24.2578 16.6235 24.2578 16.3086C24.2578 15.9937 24.0063 15.7422 23.6914 15.7422ZM20 16.25C17.937 16.25 16.25 17.937 16.25 20C16.25 22.063 17.937 23.75 20 23.75C22.063 23.75 23.75 22.063 23.75 20C23.75 17.937 22.063 16.25 20 16.25ZM20 17.5C21.3892 17.5 22.5 18.6108 22.5 20C22.5 21.3892 21.3892 22.5 20 22.5C18.6108 22.5 17.5 21.3892 17.5 20C17.5 18.6108 18.6108 17.5 20 17.5Z" fill="white"/>
</svg>
